<!-- ORCID iD icon SVG from official ORCID brand library, 16x16, green -->
<svg xmlns="http://www.w3.org/2000/svg" width="16" height="16" viewBox="0 0 16 16"><g><circle fill="#A6CE39" cx="8" cy="8" r="8"/><path fill="#FFF" d="M5.3 6.2c.2 0 .3 0 .4.1.1.1.1.2.1.4s0 .3-.1.4c-.1.1-.2.1-.4.1s-.3 0-.4-.1c-.1-.1-.1-.2-.1-.4s0-.3.1-.4c.1-.1.2-.1.4-.1zm0 2.2c.3 0 .5-.1.7-.2.2-.2.3-.4.3-.7s-.1-.5-.3-.7c-.2-.2-.4-.3-.7-.3s-.5.1-.7.3c-.2.2-.3.4-.3.7s.1.5.3.7c.2.1.4.2.7.2zm2.2-2.1h.5v2.1h-.5V6.3zm2.2 0h.5v2.1h-.5V6.3zm-1.1 0h.5v2.1h-.5V6.3z"/></g></svg>